<?xml version="1.0" standalone="no"?>
<!DOCTYPE svg PUBLIC "-//W3C//DTD SVG 20010904//EN"
 "http://www.w3.org/TR/2001/REC-SVG-20010904/DTD/svg10.dtd">
<svg version="1.0" xmlns="http://www.w3.org/2000/svg"
 width="400.000000pt" height="400.000000pt" viewBox="0 0 400.000000 400.000000"
 preserveAspectRatio="xMidYMid meet">
<metadata>
Created by potrace 1.14, written by Peter Selinger 2001-2017
</metadata>
<g transform="translate(0.000000,400.000000) scale(0.100000,-0.100000)"
fill="#000000" stroke="none">
<path d="M0 2448 l1 -1553 22 26 c12 14 33 40 47 59 52 70 72 90 92 90 11 0
58 19 104 41 47 23 86 40 87 38 2 -2 8 -16 15 -32 10 -23 17 -27 49 -26 32 1
44 8 76 44 24 27 35 48 31 59 -3 9 -10 13 -15 10 -5 -3 -9 0 -9 5 0 6 3 11 8
11 4 0 15 7 25 14 25 19 6 57 -44 91 -44 29 -48 48 -20 103 11 21 23 56 27 77
3 22 13 52 20 66 14 28 88 99 104 99 5 0 19 18 29 39 16 31 19 50 14 92 -8 72
-19 92 -46 86 -18 -5 -28 3 -50 38 -35 56 -47 124 -50 284 -2 111 0 132 16
148 18 21 23 78 7 88 -5 3 -10 11 -10 16 0 13 75 46 148 66 31 8 82 22 112 30
156 42 228 53 358 53 108 0 143 4 190 20 31 12 88 25 126 30 38 4 73 13 79 19
6 6 10 26 9 45 -1 19 1 37 6 40 14 9 15 126 0 143 -10 12 -9 17 5 28 24 17 21
23 -10 27 l-28 4 28 12 c15 6 32 23 37 37 8 22 15 25 59 25 45 0 49 -2 54 -27
3 -17 -2 -36 -14 -52 -25 -34 -20 -102 11 -143 13 -17 20 -39 18 -52 -5 -22 3
-32 38 -52 10 -6 23 -20 28 -31 8 -18 22 -21 107 -26 74 -5 116 -13 176 -36
85 -33 96 -33 203 7 34 13 78 17 187 17 77 0 136 3 131 6 -6 4 8 21 32 38 35
25 39 31 22 31 -12 0 -22 4 -22 9 0 13 51 61 66 61 8 0 14 6 15 13 0 6 2 30 5
52 2 22 5 47 6 55 1 8 -2 36 -6 61 l-8 46 37 7 c38 7 95 -8 95 -25 0 -5 9 -9
20 -9 11 0 20 -5 20 -11 0 -8 13 -9 38 -5 34 5 42 2 78 -32 26 -25 40 -46 41
-64 0 -16 -3 -28 -8 -28 -5 0 -9 -7 -9 -16 0 -14 -2 -14 -15 0 -8 8 -15 20
-15 26 0 7 -7 10 -15 6 -8 -3 -15 0 -15 7 0 8 -4 7 -10 -3 -9 -13 -11 -13 -20
0 -7 11 -12 12 -17 4 -5 -7 -17 -13 -28 -16 -22 -4 -22 -7 -11 -148 3 -36 5
-72 5 -81 1 -28 74 -39 211 -32 108 5 147 2 285 -22 229 -39 278 -59 290 -122
3 -16 19 -70 36 -121 29 -87 31 -101 26 -190 -7 -119 -69 -324 -119 -392 -17
-24 -18 -31 -5 -93 11 -50 24 -79 51 -111 39 -48 75 -119 76 -149 0 -10 14
-53 31 -95 24 -60 30 -87 26 -122 -4 -38 3 -70 19 -89 7 -7 169 -28 187 -23
16 4 17 82 17 1468 l0 1464 -2000 0 -2000 0 0 -1552z m1615 632 c-3 -5 -13
-10 -21 -10 -8 0 -12 5 -9 10 3 6 13 10 21 10 8 0 12 -4 9 -10z m1315 -254 c0
-3 -4 -8 -10 -11 -5 -3 -10 -1 -10 4 0 6 5 11 10 11 6 0 10 -2 10 -4z m75 -26
c3 -5 1 -10 -4 -10 -6 0 -11 5 -11 10 0 6 2 10 4 10 3 0 8 -4 11 -10z m-2535
-1584 c0 -33 -18 -43 -35 -20 -9 13 -10 23 -3 31 17 21 38 15 38 -11z"/>
<path d="M1590 2760 c0 -5 5 -10 11 -10 5 0 7 5 4 10 -3 6 -8 10 -11 10 -2 0
-4 -4 -4 -10z"/>
<path d="M2456 2434 c-15 -31 -43 -81 -62 -110 -21 -33 -39 -77 -45 -112 -15
-85 -15 -86 -41 -63 -26 25 -38 27 -38 6 0 -8 7 -15 16 -15 18 0 49 -28 40
-37 -3 -3 -1 -12 5 -20 9 -9 8 -13 0 -13 -6 0 -11 -4 -11 -10 0 -5 7 -7 17 -3
14 5 15 1 11 -28 -7 -42 -1 -59 18 -52 7 3 12 9 9 13 -3 5 -1 19 4 31 7 21 10
17 21 -28 12 -46 16 -51 32 -42 15 8 20 5 29 -15 15 -31 3 -96 -16 -96 -14 0
-20 -31 -16 -86 1 -12 -9 -34 -23 -49 -24 -25 -26 -26 -26 -8 0 11 -7 26 -15
33 -9 7 -12 22 -9 40 4 16 1 31 -6 35 -7 4 -10 1 -8 -11 4 -22 -45 -49 -70
-38 -9 4 -19 7 -22 6 -3 0 -6 8 -6 19 0 10 6 19 13 19 7 0 13 -7 13 -15 0 -8
5 -15 10 -15 6 0 10 7 10 16 0 10 6 14 15 10 8 -3 15 -1 15 4 0 6 -17 10 -37
11 -37 0 -38 0 -15 16 26 18 28 35 7 53 -10 9 -15 9 -15 1 0 -6 -8 -11 -17
-11 -15 0 -16 2 -3 10 12 7 12 12 2 22 -9 9 -12 9 -12 -2 0 -11 -3 -11 -12 -2
-9 9 -9 15 0 24 19 19 15 58 -5 58 -15 0 -13 4 7 20 14 10 22 21 19 24 -3 4
-16 -3 -29 -14 -31 -27 -53 -25 -67 5 -11 24 -10 25 15 19 19 -5 24 -3 17 4
-5 5 -19 12 -30 14 -14 2 -21 13 -25 38 -5 36 -25 46 -45 24 -5 -6 -18 -14
-27 -17 -17 -6 -22 3 -21 41 1 6 -3 12 -8 12 -5 0 -9 5 -9 10 0 6 7 10 15 10
8 0 15 5 15 11 0 6 -8 8 -19 4 -11 -3 -22 -1 -26 5 -3 5 -1 10 4 10 6 0 11 5
11 10 0 6 -9 10 -19 10 -11 0 -23 -4 -26 -10 -14 -22 -35 -10 -35 20 0 27 2
30 19 20 27 -14 41 -13 41 5 0 8 -4 15 -10 15 -6 0 -6 9 0 24 15 41 -27 79
-141 126 -15 6 -31 21 -37 33 -8 17 -11 -4 -12 -93 -1 -82 -6 -128 -18 -159
-24 -62 -42 -71 -84 -39 -44 34 -155 89 -197 99 -25 5 -45 3 -70 -8 -27 -12
-74 -17 -181 -20 -229 -4 -274 -7 -282 -18 -15 -20 -7 -30 23 -32 40 -3 79
-28 79 -52 0 -10 -19 -36 -42 -57 -52 -48 -85 -93 -93 -127 -4 -14 5 -71 20
-133 24 -98 26 -115 16 -170 -6 -34 -11 -115 -11 -180 0 -139 -6 -166 -55
-240 -40 -60 -38 -78 6 -69 19 4 29 3 29 -5 0 -6 5 -8 12 -4 7 4 8 3 4 -5 -4
-6 -22 -18 -39 -27 -18 -9 -36 -23 -40 -30 -4 -8 -14 -14 -20 -14 -7 0 -20
-15 -28 -32 -9 -18 -23 -46 -32 -63 -41 -76 -48 -106 -48 -197 0 -74 3 -95 16
-104 9 -7 17 -27 18 -46 2 -32 4 -33 52 -40 28 -4 77 -12 110 -19 77 -17 187
-14 265 6 33 9 65 13 69 10 5 -2 41 9 80 27 39 17 74 29 77 25 3 -3 -1 -16 -9
-29 -16 -24 -68 -179 -72 -213 -1 -11 -5 -27 -8 -35 -18 -48 -27 -87 -27 -114
0 -23 -3 -27 -10 -16 -12 19 -25 6 -15 -17 5 -10 7 -22 5 -28 -1 -5 -10 -46
-19 -90 l-17 -80 -186 -3 -186 -2 5 21 c4 15 3 20 -5 15 -7 -4 -12 -14 -12
-22 0 -17 -86 -20 -123 -3 -19 8 -22 16 -19 41 3 22 1 29 -7 23 -9 -5 -11 2
-6 29 7 33 5 36 -16 36 l-24 1 25 13 25 14 -40 7 c-64 11 -74 17 -39 25 50 11
52 14 47 102 -3 46 -5 91 -5 100 1 10 -6 18 -15 18 -11 0 -14 8 -11 30 3 16 1
30 -4 30 -4 0 -8 9 -8 19 0 11 -5 21 -10 23 -15 5 -23 78 -9 78 8 0 8 5 -1 15
-7 8 -10 24 -7 35 4 16 2 18 -13 10 -27 -14 -70 4 -70 30 0 11 7 20 15 20 8 0
15 8 15 18 0 14 -2 15 -10 2 -5 -8 -10 -10 -10 -4 0 5 4 14 8 20 16 18 132
331 132 357 0 16 -15 17 -41 2 -25 -15 -53 -76 -40 -85 12 -7 4 -40 -9 -40 -5
0 -11 -10 -13 -23 -3 -15 -5 -12 -6 11 -1 21 -5 31 -12 26 -6 -3 -33 -12 -59
-19 -44 -12 -50 -11 -69 6 -12 11 -21 27 -21 37 0 15 -2 15 -10 2 -27 -41 5
-109 51 -110 14 0 18 -20 24 -133 4 -72 9 -139 10 -147 1 -8 6 -53 9 -100 4
-47 12 -112 18 -145 6 -33 12 -89 13 -125 2 -65 38 -217 56 -234 5 -6 9 -14 9
-18 0 -4 -73 -8 -161 -8 l-162 0 7 40 c6 37 3 44 -29 76 -22 21 -35 44 -35 60
0 41 -24 22 -32 -26 -9 -49 4 -80 32 -80 14 0 20 -7 20 -22 0 -17 3 -19 9 -10
7 11 9 11 14 -1 3 -8 0 -20 -6 -26 -14 -14 -207 -15 -207 -1 0 14 -13 12 -36
-5 -17 -13 221 -14 1985 -15 1102 0 2002 3 1998 6 -3 4 -86 6 -184 6 -98 -1
-187 3 -198 8 -11 5 -15 9 -9 9 7 1 10 14 8 33 -2 18 3 50 11 73 12 30 13 52
7 88 -5 26 -6 49 -2 52 4 2 6 72 6 155 -1 133 1 150 16 150 9 0 21 13 27 31
10 29 7 34 -50 102 -93 109 -99 117 -99 123 0 3 -11 20 -24 37 -26 35 -66 119
-66 138 0 7 -6 20 -14 28 -20 22 -31 71 -16 71 6 0 8 5 5 11 -13 19 -18 212
-7 205 6 -4 9 -13 6 -20 -3 -8 5 -21 18 -30 l22 -16 -22 0 c-28 0 -28 -11 2
-42 28 -28 43 -73 27 -82 -6 -4 -11 -36 -11 -72 l0 -64 43 0 c38 0 45 -4 58
-29 47 -95 90 -171 97 -171 18 0 32 26 32 61 0 30 -4 38 -22 43 -20 5 -78 73
-78 91 0 10 49 -22 83 -53 37 -35 34 -18 -5 28 -76 87 -101 124 -135 197 -20
43 -50 91 -67 106 -17 16 -23 25 -13 22 10 -4 17 -2 17 4 0 23 -31 71 -45 71
-21 0 -27 15 -35 92 -6 53 -14 76 -32 96 -38 41 -58 79 -58 106 0 14 -4 28
-10 31 -5 3 -10 24 -10 45 0 21 5 42 10 45 6 3 10 18 10 33 0 15 6 36 13 47
10 14 14 64 15 175 1 164 -11 229 -57 304 -20 31 -20 32 0 76 29 64 21 82 -18
40 -31 -33 -33 -34 -67 -22 -27 10 -45 10 -76 2 -50 -14 -80 -5 -80 22 0 17
-4 19 -27 13 -16 -4 -34 -12 -42 -18 -8 -7 -36 -17 -64 -23 -44 -10 -63 -8
-169 17 -66 16 -124 27 -129 24 -5 -4 -9 -1 -9 4 0 17 -13 13 -44 -14 -29 -25
-53 -34 -41 -15 3 5 2 17 -3 25 -6 12 -15 3 -36 -41z m-598 -95 c13 0 13 -2
-3 -8 -22 -9 -34 7 -34 44 1 15 3 13 11 -7 5 -16 17 -28 26 -29z m730 20 c2
-5 8 -9 13 -9 6 0 7 5 4 11 -4 6 2 5 14 -3 12 -7 19 -19 16 -25 -2 -7 2 -13 9
-13 17 0 27 -25 20 -45 -4 -8 -1 -22 5 -29 9 -11 7 -19 -11 -38 -23 -25 -108
-54 -108 -37 0 5 -7 9 -16 9 -20 0 -55 43 -71 88 -13 34 -12 35 30 74 33 30
47 37 67 33 14 -4 27 -11 28 -16z m-114 -13 c-3 -9 -10 -16 -15 -16 -5 0 -4 9
3 20 14 22 21 20 12 -4z m567 -243 c-10 -17 -10 -17 -11 2 0 11 4 31 8 45 l7
25 3 -27 c2 -15 -1 -35 -7 -45z m-327 42 c-4 -8 -14 -15 -23 -15 -14 1 -13 3
3 15 25 19 27 19 20 0z m-706 -60 c1 -14 -3 -25 -8 -25 -6 0 -10 11 -10 25 0
14 4 25 8 25 4 0 9 -11 10 -25z m1192 -2 c-1 -10 -7 -40 -15 -68 -13 -49 -14
-49 -14 -14 -1 48 9 99 20 99 5 0 9 -8 9 -17z m-1253 -15 c-3 -8 -6 -5 -6 6
-1 11 2 17 5 13 3 -3 4 -12 1 -19z m778 -39 c-15 -29 -15 -31 -1 -26 11 5 16
1 16 -13 0 -23 -18 -36 -32 -22 -11 11 -57 -42 -88 -102 -8 -16 -26 -36 -40
-45 -20 -13 -23 -14 -16 -1 5 8 16 23 24 33 14 16 14 19 -3 31 -17 12 -12 19
65 100 46 47 85 84 87 82 3 -2 -3 -19 -12 -37z m-620 -9 c3 -5 2 -10 -4 -10
-5 0 -13 5 -16 10 -3 6 -2 10 4 10 5 0 13 -4 16 -10z m96 -63 c23 5 23 5 -6
-23 -19 -18 -31 -24 -33 -16 -2 6 -7 12 -11 12 -4 0 -16 7 -27 15 -18 14 -17
15 10 9 23 -6 27 -4 21 7 -7 11 -6 12 6 2 8 -7 26 -10 40 -6z m964 -57 c-4
-23 -9 -39 -11 -37 -3 2 -2 23 2 46 4 23 9 40 11 37 3 -3 2 -23 -2 -46z m-196
-115 c-8 -9 -37 -24 -65 -34 -40 -16 -78 -19 -213 -20 -90 0 -172 -3 -182 -6
-11 -4 -19 -2 -19 3 0 19 26 30 63 27 20 -2 37 1 37 7 0 6 7 7 16 4 10 -4 13
-2 8 6 -5 8 -2 9 12 4 25 -11 245 -7 259 4 9 7 38 14 85 19 12 1 12 -1 -1 -14z
m-762 -81 c-10 -10 -29 17 -22 32 6 17 8 17 16 -5 5 -13 8 -25 6 -27z m53 6
c0 -5 -2 -10 -4 -10 -3 0 -8 5 -11 10 -3 6 -1 10 4 10 6 0 11 -4 11 -10z m-90
-10 c0 -5 -5 -10 -11 -10 -5 0 -7 5 -4 10 3 6 8 10 11 10 2 0 4 -4 4 -10z
m907 -102 c-2 -13 -4 -5 -4 17 -1 22 1 32 4 23 2 -10 2 -28 0 -40z m51 35 c-2
-9 -8 -18 -15 -20 -7 -3 -9 3 -6 16 6 25 26 28 21 4z m-82 -48 c1 -19 -3 -32
-7 -29 -14 8 -9 64 5 64 1 0 2 -16 2 -35z m6 -87 c-7 -7 -12 -8 -12 -2 0 14
12 26 19 19 2 -3 -1 -11 -7 -17z m-88 -4 c3 -8 2 -12 -4 -9 -6 3 -10 10 -10
16 0 14 7 11 14 -7z m36 -25 c0 -6 -4 -7 -10 -4 -5 3 -10 11 -10 16 0 6 5 7
10 4 6 -3 10 -11 10 -16z m10 -49 c0 -5 -4 -10 -10 -10 -5 0 -10 5 -10 10 0 6
5 10 10 10 6 0 10 -4 10 -10z m100 -10 c0 -5 -4 -10 -9 -10 -6 0 -13 5 -16 10
-3 6 1 10 9 10 9 0 16 -4 16 -10z m-17 -50 c3 -11 1 -18 -4 -14 -5 3 -9 12 -9
20 0 20 7 17 13 -6z m-73 -70 c0 -5 -5 -10 -11 -10 -5 0 -7 5 -4 10 3 6 8 10
11 10 2 0 4 -4 4 -10z m280 -182 c0 -4 -5 -8 -11 -8 -5 0 -7 5 -4 10 3 6 2 10
-3 10 -5 0 -18 12 -27 28 l-18 27 32 -29 c17 -17 31 -33 31 -38z m-110 -15 c8
-3 26 -7 40 -9 57 -7 68 -14 85 -56 9 -23 22 -47 30 -52 45 -37 92 -206 61
-221 -7 -3 -7 -7 2 -11 15 -7 16 -36 0 -52 -9 -9 -9 -12 3 -12 12 0 14 -25 14
-150 0 -121 -2 -150 -13 -150 -8 0 -12 6 -9 15 4 8 1 17 -4 21 -15 9 -8 -67 8
-86 8 -11 11 -38 8 -85 -6 -105 -16 -229 -19 -233 -2 -1 -11 0 -20 4 -16 6
-16 8 1 26 15 17 15 21 3 28 -8 6 -22 10 -30 10 -11 0 -12 -2 -3 -8 7 -5 9
-13 4 -21 -7 -11 -14 -9 -32 9 -13 13 -19 20 -12 16 6 -3 15 6 22 24 6 19 7
28 0 25 -5 -4 -18 4 -29 17 -23 27 -25 42 -6 35 10 -4 17 4 21 24 5 24 11 29
26 24 11 -4 19 -2 19 4 0 6 -4 11 -9 11 -5 0 -16 3 -24 6 -9 3 -16 -3 -20 -16
-5 -20 -7 -20 -41 -6 -20 8 -36 12 -36 9 0 -3 -7 0 -15 7 -12 10 -16 9 -21 -5
-4 -10 -2 -26 4 -36 7 -10 12 -24 12 -31 0 -7 9 -24 19 -38 18 -22 18 -25 3
-37 -16 -12 -16 -14 2 -28 20 -15 20 -15 -1 -34 -18 -17 -36 -20 -130 -20
-105 -1 -110 0 -131 24 -22 25 -42 33 -42 16 0 -5 7 -11 15 -15 8 -3 15 -10
15 -15 0 -7 -42 -10 -112 -9 -88 2 -116 6 -125 18 -11 13 -12 13 -13 -2 0 -17
-28 -18 -440 -18 l-440 0 -10 24 c-10 28 -16 138 -8 152 3 5 9 37 12 72 7 64
15 87 51 129 11 13 28 46 38 73 10 28 23 50 28 50 5 0 9 14 9 31 0 37 28 128
46 149 7 8 12 17 11 20 0 3 11 25 26 50 49 85 121 245 124 280 2 19 13 43 25
54 17 16 25 17 52 8 32 -12 167 -9 199 3 9 4 35 0 57 -9 24 -10 41 -12 45 -6
4 6 11 7 18 3 6 -3 40 -7 76 -9 77 -2 154 -11 196 -23 35 -9 144 -4 159 8 20
15 106 31 134 25 26 -6 26 -6 7 10 -19 15 -18 15 15 5 19 -6 42 -13 50 -16z
m-2596 -499 c10 -38 0 -41 -12 -5 -6 17 -7 31 -3 31 5 0 12 -12 15 -26z"/>
<path d="M2328 1064 c-8 -7 23 -38 51 -54 29 -15 26 -6 -9 30 -31 32 -33 33
-42 24z"/>
<path d="M3016 1043 c-6 -14 -5 -15 5 -6 7 7 10 15 7 18 -3 3 -9 -2 -12 -12z"/>
<path d="M3120 1038 c0 -24 55 -64 65 -48 4 7 -50 70 -61 70 -2 0 -4 -10 -4
-22z"/>
<path d="M2650 1030 c0 -5 7 -10 16 -10 8 0 12 5 9 10 -3 6 -10 10 -16 10 -5
0 -9 -4 -9 -10z"/>
<path d="M2935 1000 c3 -5 8 -10 11 -10 2 0 4 5 4 10 0 6 -5 10 -11 10 -5 0
-7 -4 -4 -10z"/>
<path d="M2840 990 c20 -13 33 -13 25 0 -3 6 -14 10 -23 10 -15 0 -15 -2 -2
-10z"/>
<path d="M3060 949 c0 -5 5 -7 10 -4 6 3 10 8 10 11 0 2 -4 4 -10 4 -5 0 -10
-5 -10 -11z"/>
<path d="M2440 940 c0 -5 5 -10 11 -10 5 0 7 5 4 10 -3 6 -8 10 -11 10 -2 0
-4 -4 -4 -10z"/>
<path d="M3114 939 c-7 -12 12 -29 32 -29 10 0 24 21 24 36 0 9 -49 3 -56 -7z"/>
<path d="M3170 902 c0 -5 7 -16 16 -23 14 -12 16 -11 13 5 -4 20 -29 35 -29
18z"/>
<path d="M3290 892 c0 -5 11 -19 25 -32 15 -14 25 -18 25 -10 0 7 -10 21 -22
31 -24 21 -28 23 -28 11z"/>
<path d="M2905 870 c3 -5 11 -10 16 -10 6 0 7 5 4 10 -3 6 -11 10 -16 10 -6 0
-7 -4 -4 -10z"/>
<path d="M2950 862 c0 -13 23 -32 39 -32 11 0 10 4 -4 20 -19 21 -35 26 -35
12z"/>
<path d="M3370 840 c0 -5 7 -7 15 -4 8 4 15 8 15 10 0 2 -7 4 -15 4 -8 0 -15
-4 -15 -10z"/>
<path d="M2856 795 c4 -8 10 -15 15 -15 4 0 6 7 3 15 -4 8 -10 15 -15 15 -4 0
-6 -7 -3 -15z"/>
<path d="M3136 801 c-3 -5 1 -11 9 -15 9 -3 15 0 15 9 0 16 -16 20 -24 6z"/>
<path d="M2504 785 c8 -8 20 -15 27 -15 9 0 8 4 -1 15 -7 8 -19 15 -27 15 -12
0 -12 -2 1 -15z"/>
<path d="M3250 775 c0 -8 4 -15 10 -15 5 0 7 7 4 15 -4 8 -8 15 -10 15 -2 0
-4 -7 -4 -15z"/>
<path d="M3360 777 c0 -8 7 -17 15 -21 8 -3 15 -2 15 3 0 5 -7 14 -15 21 -12
10 -15 10 -15 -3z"/>
<path d="M2130 770 c0 -5 5 -10 10 -10 6 0 10 5 10 10 0 6 -4 10 -10 10 -5 0
-10 -4 -10 -10z"/>
<path d="M2930 760 c0 -5 5 -10 11 -10 5 0 7 5 4 10 -3 6 -8 10 -11 10 -2 0
-4 -4 -4 -10z"/>
<path d="M3145 720 c4 -7 8 -26 7 -42 -1 -27 0 -28 13 -12 14 20 6 55 -15 62
-8 3 -10 0 -5 -8z"/>
<path d="M3346 712 c-2 -4 -1 -14 3 -21 6 -10 10 -9 14 3 6 16 -8 32 -17 18z"/>
<path d="M3020 685 c7 -8 17 -15 22 -15 5 0 3 7 -6 15 -8 8 -18 15 -22 15 -3
0 -1 -7 6 -15z"/>
<path d="M3203 685 c-13 -5 -23 -16 -23 -23 0 -7 -6 -15 -14 -18 -12 -4 -11
-54 1 -54 19 0 43 26 53 55 15 44 11 53 -17 40z"/>
<path d="M3315 650 c3 -5 11 -10 16 -10 6 0 7 5 4 10 -3 6 -11 10 -16 10 -6 0
-7 -4 -4 -10z"/>
<path d="M3370 641 c0 -6 5 -13 10 -16 6 -3 10 1 10 9 0 9 -4 16 -10 16 -5 0
-10 -4 -10 -9z"/>
<path d="M3225 629 c-4 -6 -4 -13 -1 -16 3 -4 6 -1 6 6 0 8 6 11 16 7 8 -3 12
-2 9 4 -8 13 -22 13 -30 -1z"/>
<path d="M3272 618 c-13 -16 -7 -48 9 -48 5 0 14 -12 20 -26 9 -25 11 -26 28
-10 9 9 22 13 27 9 5 -5 1 2 -10 14 -10 12 -23 19 -30 17 -8 -3 -17 8 -22 27
-8 27 -11 30 -22 17z"/>
<path d="M3340 600 c0 -5 5 -10 11 -10 5 0 7 5 4 10 -3 6 -8 10 -11 10 -2 0
-4 -4 -4 -10z"/>
<path d="M2650 582 c0 -12 19 -26 26 -19 2 2 -2 10 -11 17 -9 8 -15 8 -15 2z"/>
<path d="M3386 582 c-9 -15 4 -42 20 -42 12 0 13 4 3 23 -16 29 -16 30 -23 19z"/>
<path d="M3180 570 c0 -14 26 -41 33 -34 2 3 7 -4 10 -16 3 -12 1 -18 -5 -14
-6 4 -6 -2 1 -14 14 -26 34 -39 38 -25 5 15 43 4 43 -13 0 -8 9 -23 20 -34 11
-11 20 -31 20 -45 0 -14 4 -25 9 -25 15 0 23 18 12 25 -6 3 -13 27 -17 53 -9
64 -21 84 -44 77 -14 -4 -20 1 -25 24 -4 21 -13 30 -33 34 -15 2 -35 8 -44 12
-12 4 -18 3 -18 -5z"/>
<path d="M3150 537 c0 -5 9 -20 20 -34 11 -14 20 -21 20 -15 0 12 -39 60 -40
49z"/>
<path d="M2830 520 c0 -5 10 -15 23 -21 22 -12 22 -12 3 10 -21 23 -26 26 -26
11z"/>
<path d="M3027 489 c7 -7 15 -10 18 -7 3 3 -2 9 -12 12 -14 6 -15 5 -6 -5z"/>
<path d="M3197 463 c-3 -4 1 -17 9 -28 10 -13 14 -15 14 -4 0 20 -16 43 -23
32z"/>
<path d="M3091 443 c7 -12 15 -20 18 -17 3 2 -3 12 -13 22 -17 16 -18 16 -5
-5z"/>
<path d="M3010 441 c0 -6 4 -13 10 -16 6 -3 7 1 4 9 -7 18 -14 21 -14 7z"/>
<path d="M2830 426 c0 -3 9 -10 20 -16 11 -6 20 -8 20 -6 0 3 -9 10 -20 16
-11 6 -20 8 -20 6z"/>
<path d="M3237 412 c-21 -22 -22 -36 -3 -29 7 3 18 1 23 -4 12 -12 45 0 40 15
-2 6 -10 11 -18 11 -8 0 -16 6 -19 13 -4 10 -10 9 -23 -6z"/>
<path d="M3046 406 c3 -9 11 -16 16 -16 13 0 5 23 -10 28 -7 2 -10 -2 -6 -12z"/>
<path d="M2940 392 c6 -13 14 -21 18 -18 3 4 -2 14 -12 24 -18 16 -18 16 -6
-6z"/>
<path d="M3095 390 c3 -5 8 -10 11 -10 2 0 4 5 4 10 0 6 -5 10 -11 10 -5 0 -7
-4 -4 -10z"/>
<path d="M3250 350 c0 -5 7 -10 15 -10 8 0 15 5 15 10 0 6 -7 10 -15 10 -8 0
-15 -4 -15 -10z"/>
<path d="M3290 328 c0 -29 12 -48 39 -62 22 -12 28 -12 41 2 10 12 11 17 2 20
-7 2 -10 7 -8 11 3 4 1 13 -3 20 -6 10 -12 9 -25 -4 -18 -19 -18 -19 -34 10
-9 16 -11 17 -12 3z"/>
<path d="M3086 295 c4 -8 8 -15 10 -15 2 0 4 7 4 15 0 8 -4 15 -10 15 -5 0 -7
-7 -4 -15z"/>
<path d="M2900 276 c-9 -12 -8 -15 8 -13 12 0 18 6 15 14 -6 16 -8 16 -23 -1z"/>
<path d="M3370 252 c0 -12 19 -26 26 -19 2 2 -2 10 -11 17 -9 8 -15 8 -15 2z"/>
<path d="M3110 236 c0 -2 7 -9 15 -16 9 -7 15 -8 15 -2 0 5 -7 12 -15 16 -8 3
-15 4 -15 2z"/>
<path d="M3162 210 c0 -19 2 -27 5 -17 2 9 2 25 0 35 -3 9 -5 1 -5 -18z"/>
<path d="M3045 196 c-18 -13 -18 -14 4 -26 13 -6 34 -10 47 -7 16 3 25 -1 29
-14 7 -21 35 -46 35 -31 0 6 -6 17 -14 25 -8 8 -14 22 -13 33 2 20 -1 21 -47
10 -23 -6 -27 -4 -23 8 8 19 6 20 -18 2z"/>
<path d="M2600 158 c0 -18 18 -34 28 -24 3 4 -2 14 -11 23 -16 16 -17 16 -17
1z"/>
<path d="M2921 144 c0 -11 3 -14 6 -6 3 7 2 16 -1 19 -3 4 -6 -2 -5 -13z"/>
<path d="M2650 140 c0 -5 12 -10 26 -10 14 0 23 4 19 10 -3 6 -15 10 -26 10
-10 0 -19 -4 -19 -10z"/>
<path d="M2955 130 c3 -5 8 -10 11 -10 2 0 4 5 4 10 0 6 -5 10 -11 10 -5 0 -7
-4 -4 -10z"/>
<path d="M2810 105 c7 -9 15 -13 17 -11 7 7 -7 26 -19 26 -6 0 -6 -6 2 -15z"/>
<path d="M3376 111 c-4 -7 -5 -15 -2 -18 9 -9 19 4 14 18 -4 11 -6 11 -12 0z"/>
<path d="M3072 80 c0 -14 2 -19 5 -12 2 6 2 18 0 25 -3 6 -5 1 -5 -13z"/>
<path d="M2740 83 c0 -6 8 -17 18 -24 16 -13 16 -13 2 6 -8 11 -16 22 -17 24
-2 2 -3 0 -3 -6z"/>
<path d="M3000 71 c0 -6 5 -13 10 -16 6 -3 10 1 10 9 0 9 -4 16 -10 16 -5 0
-10 -4 -10 -9z"/>
<path d="M3196 35 c8 -19 14 -19 14 0 0 8 -4 15 -10 15 -5 0 -7 -7 -4 -15z"/>
<path d="M1940 2230 c0 -5 5 -10 10 -10 6 0 10 5 10 10 0 6 -4 10 -10 10 -5 0
-10 -4 -10 -10z"/>
<path d="M2155 2220 c-8 -13 -1 -24 14 -19 6 3 7 10 2 18 -6 10 -10 10 -16 1z"/>
<path d="M2223 2212 c0 -12 10 -23 21 -26 29 -7 29 -2 1 24 -23 22 -24 22 -22
2z"/>
<path d="M2130 2096 c0 -9 5 -16 10 -16 6 0 10 4 10 9 0 6 -4 13 -10 16 -5 3
-10 -1 -10 -9z"/>
<path d="M2277 1974 c-4 -4 -7 -14 -7 -23 0 -11 3 -12 11 -4 6 6 10 16 7 23
-2 6 -7 8 -11 4z"/>
<path d="M594 1226 c-4 -11 0 -24 9 -34 15 -14 17 -14 23 2 4 11 0 24 -9 34
-15 14 -17 14 -23 -2z"/>
<path d="M290 1099 c0 -6 8 -8 19 -4 11 3 22 1 26 -5 3 -5 12 -10 18 -10 19 1
-25 30 -45 30 -10 0 -18 -5 -18 -11z"/>
<path d="M3830 1040 c0 -5 5 -10 10 -10 6 0 10 5 10 10 0 6 -4 10 -10 10 -5 0
-10 -4 -10 -10z"/>
<path d="M90 878 c0 -63 25 -134 64 -183 l15 -20 0 20 c0 11 -6 38 -14 60 -8
22 -15 50 -15 62 0 12 -4 24 -9 27 -5 3 -12 26 -15 51 -10 66 -26 55 -26 -17z"/>
<path d="M3700 910 c0 -6 7 -13 15 -17 24 -9 27 1 5 15 -13 8 -20 8 -20 2z"/>
<path d="M3760 820 c0 -5 5 -10 11 -10 5 0 7 5 4 10 -3 6 -8 10 -11 10 -2 0
-4 -4 -4 -10z"/>
<path d="M172 640 c0 -19 2 -27 5 -17 2 9 2 25 0 35 -3 9 -5 1 -5 -18z"/>
<path d="M86 609 c-4 -9 -3 -67 3 -129 10 -123 16 -133 94 -183 43 -28 31 -2
-18 39 -42 34 -57 66 -36 78 5 3 38 -8 75 -24 36 -17 68 -30 71 -30 3 0 5 9 5
21 0 11 -4 17 -10 14 -12 -7 -53 22 -115 80 -31 30 -42 49 -51 94 -7 36 -14
50 -18 40z"/>
<path d="M3810 576 c0 -2 7 -7 16 -10 8 -3 12 -2 9 4 -6 10 -25 14 -25 6z"/>
<path d="M1090 411 c0 -6 4 -13 10 -16 6 -3 7 1 4 9 -7 18 -14 21 -14 7z"/>
<path d="M950 299 c0 -5 5 -7 10 -4 6 3 10 8 10 11 0 2 -4 4 -10 4 -5 0 -10
-5 -10 -11z"/>
<path d="M3760 280 c0 -5 5 -10 10 -10 6 0 10 5 10 10 0 6 -4 10 -10 10 -5 0
-10 -4 -10 -10z"/>
<path d="M3955 260 c3 -5 8 -10 11 -10 2 0 4 5 4 10 0 6 -5 10 -11 10 -5 0 -7
-4 -4 -10z"/>
<path d="M231 240 c-10 -6 -7 -12 12 -25 26 -16 53 -13 42 6 -11 17 -41 28
-54 19z"/>
<path d="M3790 231 c0 -5 5 -13 10 -16 6 -3 10 -2 10 4 0 5 -4 13 -10 16 -5 3
-10 2 -10 -4z"/>
<path d="M3957 183 c-16 -15 -6 -51 15 -56 28 -8 38 1 18 16 -9 7 -14 20 -12
30 3 17 -9 23 -21 10z"/>
<path d="M3660 71 c0 -5 5 -13 10 -16 6 -3 10 -2 10 4 0 5 -4 13 -10 16 -5 3
-10 2 -10 -4z"/>
</g>
</svg>
